<mxfile host="Electron" modified="2024-04-07T01:11:25.863Z" agent="Mozilla/5.0 (Windows NT 10.0; Win64; x64) AppleWebKit/537.36 (KHTML, like Gecko) draw.io/24.1.0 Chrome/120.0.6099.109 Electron/28.1.0 Safari/537.36" etag="lQaegUkxntf9IdiggM-v" version="24.1.0" type="device">
  <diagram name="Página-1" id="yWZtjddokVq010jwHbkZ">
    <mxGraphModel dx="2247" dy="830" grid="1" gridSize="10" guides="1" tooltips="1" connect="1" arrows="1" fold="1" page="1" pageScale="1" pageWidth="827" pageHeight="1169" background="#CCE5FF" math="0" shadow="0">
      <root>
        <mxCell id="0" />
        <mxCell id="1" parent="0" />
        <mxCell id="MBTDDo2H8t6Re1291r3L-1" value="&lt;p style=&quot;line-height: 100%;&quot;&gt;&lt;b style=&quot;font-size: 16px;&quot;&gt;&lt;font style=&quot;font-size: 16px;&quot; color=&quot;#000000&quot; face=&quot;Comic Sans MS&quot;&gt;13 Dada una lista de 10 números informar cual es el máximo de los pares. &lt;br&gt;&lt;br&gt;Ejemplo A: 2, 10, 20, 8, 25, 13, 36, - 8, -5, 20 se informa máximo: 36&lt;br&gt;&lt;br&gt;Ejemplo B 5, -13, 23, 81, -55, -13, 55, 4, 15 ,-20 Se informa máximo: 4&lt;br&gt;&lt;br&gt;Ejemplo C: -5, -13, -20, -8, -55, -13, -55, -14, -15, -20 se informa máximo: -8&lt;/font&gt;&lt;/b&gt;&lt;/p&gt;" style="text;whiteSpace=wrap;html=1;fontFamily=Architects Daughter;fontSource=https%3A%2F%2Ffonts.googleapis.com%2Fcss%3Ffamily%3DArchitects%2BDaughter;" vertex="1" parent="1">
          <mxGeometry x="80" width="630" height="150" as="geometry" />
        </mxCell>
        <mxCell id="MBTDDo2H8t6Re1291r3L-63" value="" style="group;aspect=fixed;" vertex="1" connectable="0" parent="1">
          <mxGeometry x="-120" y="200" width="865" height="1060" as="geometry" />
        </mxCell>
        <mxCell id="MBTDDo2H8t6Re1291r3L-19" value="" style="group;aspect=fixed;" vertex="1" connectable="0" parent="MBTDDo2H8t6Re1291r3L-63">
          <mxGeometry y="180" width="865" height="700" as="geometry" />
        </mxCell>
        <mxCell id="MBTDDo2H8t6Re1291r3L-20" value="" style="whiteSpace=wrap;html=1;aspect=fixed;rounded=0;labelBackgroundColor=none;strokeColor=#000000;strokeWidth=2;align=center;verticalAlign=middle;fontFamily=Helvetica;fontSize=12;fontColor=default;fillColor=#d5e8d4;" vertex="1" parent="MBTDDo2H8t6Re1291r3L-19">
          <mxGeometry x="165" width="700" height="700" as="geometry" />
        </mxCell>
        <mxCell id="MBTDDo2H8t6Re1291r3L-38" value="" style="group;aspect=fixed;" vertex="1" connectable="0" parent="MBTDDo2H8t6Re1291r3L-19">
          <mxGeometry x="520" y="150" width="130" height="140" as="geometry" />
        </mxCell>
        <mxCell id="MBTDDo2H8t6Re1291r3L-34" value="" style="rhombus;whiteSpace=wrap;html=1;rounded=0;labelBackgroundColor=none;strokeColor=#0F140C;strokeWidth=2;align=center;verticalAlign=middle;fontFamily=Helvetica;fontSize=12;fontColor=default;fillColor=#d5e8d4;" vertex="1" parent="MBTDDo2H8t6Re1291r3L-38">
          <mxGeometry width="130" height="140" as="geometry" />
        </mxCell>
        <mxCell id="MBTDDo2H8t6Re1291r3L-35" value="&lt;b&gt;&lt;font color=&quot;#000000&quot; style=&quot;font-size: 14px;&quot; face=&quot;Comic Sans MS&quot;&gt;num % 2&lt;/font&gt;&lt;/b&gt;&lt;div&gt;&lt;b&gt;&lt;font color=&quot;#000000&quot; style=&quot;font-size: 14px;&quot; face=&quot;Comic Sans MS&quot;&gt;==&lt;/font&gt;&lt;/b&gt;&lt;/div&gt;&lt;div&gt;&lt;b&gt;&lt;font color=&quot;#000000&quot; style=&quot;font-size: 14px;&quot; face=&quot;Comic Sans MS&quot;&gt;0&lt;/font&gt;&lt;/b&gt;&lt;/div&gt;" style="text;strokeColor=none;align=center;fillColor=none;html=1;verticalAlign=middle;whiteSpace=wrap;rounded=0;fontFamily=Architects Daughter;fontSource=https%3A%2F%2Ffonts.googleapis.com%2Fcss%3Ffamily%3DArchitects%2BDaughter;" vertex="1" parent="MBTDDo2H8t6Re1291r3L-38">
          <mxGeometry x="21" y="46" width="90" height="60" as="geometry" />
        </mxCell>
        <mxCell id="MBTDDo2H8t6Re1291r3L-43" value="" style="group;aspect=fixed;" vertex="1" connectable="0" parent="MBTDDo2H8t6Re1291r3L-19">
          <mxGeometry x="400" y="270" width="130" height="140" as="geometry" />
        </mxCell>
        <mxCell id="MBTDDo2H8t6Re1291r3L-37" value="" style="rhombus;whiteSpace=wrap;html=1;rounded=0;labelBackgroundColor=none;strokeColor=#0F140C;strokeWidth=2;align=center;verticalAlign=middle;fontFamily=Helvetica;fontSize=12;fontColor=default;fillColor=#d5e8d4;container=0;" vertex="1" parent="MBTDDo2H8t6Re1291r3L-43">
          <mxGeometry width="130" height="140" as="geometry" />
        </mxCell>
        <mxCell id="MBTDDo2H8t6Re1291r3L-40" value="&lt;font face=&quot;Comic Sans MS&quot; color=&quot;#000000&quot;&gt;&lt;span style=&quot;font-size: 14px;&quot;&gt;&lt;b&gt;&amp;nbsp;bandera_par&amp;nbsp;&lt;/b&gt;&lt;/span&gt;&lt;/font&gt;&lt;div&gt;&lt;font face=&quot;Comic Sans MS&quot; color=&quot;#000000&quot;&gt;&lt;span style=&quot;font-size: 14px;&quot;&gt;&lt;b&gt;==&lt;/b&gt;&lt;/span&gt;&lt;/font&gt;&lt;/div&gt;&lt;div&gt;&lt;b style=&quot;font-size: 14px; color: rgb(0, 0, 0); font-family: &amp;quot;Comic Sans MS&amp;quot;; background-color: initial;&quot;&gt;false&lt;/b&gt;&lt;/div&gt;" style="text;strokeColor=none;align=center;fillColor=none;html=1;verticalAlign=middle;whiteSpace=wrap;rounded=0;fontFamily=Architects Daughter;fontSource=https://fonts.googleapis.com/css?family=Architects+Daughter;container=0;" vertex="1" parent="MBTDDo2H8t6Re1291r3L-43">
          <mxGeometry x="21" y="46" width="88" height="60" as="geometry" />
        </mxCell>
        <mxCell id="MBTDDo2H8t6Re1291r3L-44" value="" style="group;aspect=fixed;" vertex="1" connectable="0" parent="MBTDDo2H8t6Re1291r3L-19">
          <mxGeometry x="520" y="390" width="130" height="140" as="geometry" />
        </mxCell>
        <mxCell id="MBTDDo2H8t6Re1291r3L-39" value="" style="rhombus;whiteSpace=wrap;html=1;rounded=0;labelBackgroundColor=none;strokeColor=#0F140C;strokeWidth=2;align=center;verticalAlign=middle;fontFamily=Helvetica;fontSize=12;fontColor=default;fillColor=#d5e8d4;" vertex="1" parent="MBTDDo2H8t6Re1291r3L-44">
          <mxGeometry width="130" height="140" as="geometry" />
        </mxCell>
        <mxCell id="MBTDDo2H8t6Re1291r3L-41" value="&lt;font face=&quot;Comic Sans MS&quot; color=&quot;#000000&quot;&gt;&lt;span style=&quot;font-size: 14px;&quot;&gt;&lt;b&gt;num&lt;/b&gt;&lt;/span&gt;&lt;/font&gt;&lt;div&gt;&lt;font face=&quot;Comic Sans MS&quot; color=&quot;#000000&quot;&gt;&lt;span style=&quot;font-size: 14px;&quot;&gt;&lt;b&gt;&amp;gt;&lt;/b&gt;&lt;/span&gt;&lt;/font&gt;&lt;/div&gt;&lt;div&gt;&lt;font face=&quot;Comic Sans MS&quot; color=&quot;#000000&quot;&gt;&lt;span style=&quot;font-size: 14px;&quot;&gt;&lt;b&gt;maximo_par&lt;/b&gt;&lt;/span&gt;&lt;/font&gt;&lt;/div&gt;" style="text;strokeColor=none;align=center;fillColor=none;html=1;verticalAlign=middle;whiteSpace=wrap;rounded=0;fontFamily=Architects Daughter;fontSource=https://fonts.googleapis.com/css?family=Architects+Daughter;" vertex="1" parent="MBTDDo2H8t6Re1291r3L-44">
          <mxGeometry x="22" y="34" width="88" height="60" as="geometry" />
        </mxCell>
        <mxCell id="MBTDDo2H8t6Re1291r3L-56" value="" style="group;aspect=fixed;" vertex="1" connectable="0" parent="MBTDDo2H8t6Re1291r3L-19">
          <mxGeometry x="270" y="410" width="160" height="50" as="geometry" />
        </mxCell>
        <mxCell id="MBTDDo2H8t6Re1291r3L-47" value="" style="rounded=0;whiteSpace=wrap;html=1;labelBackgroundColor=none;strokeColor=#0f100e;strokeWidth=2;align=center;verticalAlign=middle;fontFamily=Helvetica;fontSize=12;fontColor=default;fillColor=#d5e8d4;" vertex="1" parent="MBTDDo2H8t6Re1291r3L-56">
          <mxGeometry width="160" height="50" as="geometry" />
        </mxCell>
        <mxCell id="MBTDDo2H8t6Re1291r3L-50" value="&lt;b style=&quot;font-size: 14px;&quot;&gt;&lt;font color=&quot;#000000&quot; style=&quot;font-size: 14px;&quot; face=&quot;Comic Sans MS&quot;&gt;maximo_par = num&lt;/font&gt;&lt;/b&gt;&lt;div style=&quot;font-size: 14px;&quot;&gt;&lt;b&gt;&lt;font color=&quot;#000000&quot; style=&quot;font-size: 14px;&quot; face=&quot;Comic Sans MS&quot;&gt;bandera_par = true&lt;/font&gt;&lt;/b&gt;&lt;/div&gt;" style="text;strokeColor=none;align=center;fillColor=none;html=1;verticalAlign=middle;whiteSpace=wrap;rounded=0;fontFamily=Architects Daughter;fontSource=https://fonts.googleapis.com/css?family=Architects+Daughter;" vertex="1" parent="MBTDDo2H8t6Re1291r3L-56">
          <mxGeometry x="10" y="5" width="140" height="40" as="geometry" />
        </mxCell>
        <mxCell id="MBTDDo2H8t6Re1291r3L-55" value="" style="group;aspect=fixed;" vertex="1" connectable="0" parent="MBTDDo2H8t6Re1291r3L-19">
          <mxGeometry x="385" y="520" width="160" height="50" as="geometry" />
        </mxCell>
        <mxCell id="MBTDDo2H8t6Re1291r3L-53" value="" style="rounded=0;whiteSpace=wrap;html=1;labelBackgroundColor=none;strokeColor=#0f100e;strokeWidth=2;align=center;verticalAlign=middle;fontFamily=Helvetica;fontSize=12;fontColor=default;fillColor=#d5e8d4;" vertex="1" parent="MBTDDo2H8t6Re1291r3L-55">
          <mxGeometry width="160" height="50" as="geometry" />
        </mxCell>
        <mxCell id="MBTDDo2H8t6Re1291r3L-54" value="&lt;b&gt;&lt;font color=&quot;#000000&quot; style=&quot;font-size: 14px;&quot; face=&quot;Comic Sans MS&quot;&gt;maximo_par = num&lt;/font&gt;&lt;/b&gt;" style="text;strokeColor=none;align=center;fillColor=none;html=1;verticalAlign=middle;whiteSpace=wrap;rounded=0;fontFamily=Architects Daughter;fontSource=https://fonts.googleapis.com/css?family=Architects+Daughter;" vertex="1" parent="MBTDDo2H8t6Re1291r3L-55">
          <mxGeometry x="12.5" y="15" width="135" height="20" as="geometry" />
        </mxCell>
        <mxCell id="MBTDDo2H8t6Re1291r3L-65" value="" style="line;strokeWidth=2;direction=south;html=1;hachureGap=4;fontFamily=Architects Daughter;fontSource=https://fonts.googleapis.com/css?family=Architects+Daughter;strokeColor=#000000;" vertex="1" parent="MBTDDo2H8t6Re1291r3L-19">
          <mxGeometry x="580" y="110" width="10" height="40" as="geometry" />
        </mxCell>
        <mxCell id="MBTDDo2H8t6Re1291r3L-79" value="" style="line;strokeWidth=2;html=1;perimeter=backbonePerimeter;points=[];outlineConnect=0;hachureGap=4;fontFamily=Architects Daughter;fontSource=https://fonts.googleapis.com/css?family=Architects+Daughter;strokeColor=#000000;" vertex="1" parent="MBTDDo2H8t6Re1291r3L-19">
          <mxGeometry x="460" y="215" width="60" height="10" as="geometry" />
        </mxCell>
        <mxCell id="MBTDDo2H8t6Re1291r3L-78" value="" style="line;strokeWidth=2;html=1;perimeter=backbonePerimeter;points=[];outlineConnect=0;hachureGap=4;fontFamily=Architects Daughter;fontSource=https://fonts.googleapis.com/css?family=Architects+Daughter;strokeColor=#000000;" vertex="1" parent="MBTDDo2H8t6Re1291r3L-19">
          <mxGeometry x="650" y="215" width="100" height="10" as="geometry" />
        </mxCell>
        <mxCell id="MBTDDo2H8t6Re1291r3L-64" value="" style="line;strokeWidth=2;direction=south;html=1;hachureGap=4;fontFamily=Architects Daughter;fontSource=https://fonts.googleapis.com/css?family=Architects+Daughter;strokeColor=#000000;" vertex="1" parent="MBTDDo2H8t6Re1291r3L-19">
          <mxGeometry x="460" y="220" width="10" height="50" as="geometry" />
        </mxCell>
        <mxCell id="MBTDDo2H8t6Re1291r3L-81" value="" style="line;strokeWidth=2;html=1;perimeter=backbonePerimeter;points=[];outlineConnect=0;hachureGap=4;fontFamily=Architects Daughter;fontSource=https://fonts.googleapis.com/css?family=Architects+Daughter;strokeColor=#000000;" vertex="1" parent="MBTDDo2H8t6Re1291r3L-19">
          <mxGeometry x="350" y="335" width="50" height="10" as="geometry" />
        </mxCell>
        <mxCell id="MBTDDo2H8t6Re1291r3L-68" value="" style="line;strokeWidth=2;direction=south;html=1;hachureGap=4;fontFamily=Architects Daughter;fontSource=https://fonts.googleapis.com/css?family=Architects+Daughter;strokeColor=#000000;" vertex="1" parent="MBTDDo2H8t6Re1291r3L-19">
          <mxGeometry x="345" y="460" width="10" height="160" as="geometry" />
        </mxCell>
        <mxCell id="MBTDDo2H8t6Re1291r3L-80" value="" style="line;strokeWidth=2;html=1;perimeter=backbonePerimeter;points=[];outlineConnect=0;hachureGap=4;fontFamily=Architects Daughter;fontSource=https://fonts.googleapis.com/css?family=Architects+Daughter;strokeColor=#000000;" vertex="1" parent="MBTDDo2H8t6Re1291r3L-19">
          <mxGeometry x="530" y="335" width="60" height="10" as="geometry" />
        </mxCell>
        <mxCell id="MBTDDo2H8t6Re1291r3L-73" value="" style="line;strokeWidth=2;direction=south;html=1;hachureGap=4;fontFamily=Architects Daughter;fontSource=https://fonts.googleapis.com/css?family=Architects+Daughter;strokeColor=#000000;" vertex="1" parent="MBTDDo2H8t6Re1291r3L-19">
          <mxGeometry x="580" y="340" width="10" height="50" as="geometry" />
        </mxCell>
        <mxCell id="MBTDDo2H8t6Re1291r3L-77" value="" style="line;strokeWidth=2;html=1;perimeter=backbonePerimeter;points=[];outlineConnect=0;hachureGap=4;fontFamily=Architects Daughter;fontSource=https://fonts.googleapis.com/css?family=Architects+Daughter;strokeColor=#000000;" vertex="1" parent="MBTDDo2H8t6Re1291r3L-19">
          <mxGeometry x="470" y="455" width="50" height="10" as="geometry" />
        </mxCell>
        <mxCell id="MBTDDo2H8t6Re1291r3L-76" value="" style="line;strokeWidth=2;html=1;perimeter=backbonePerimeter;points=[];outlineConnect=0;hachureGap=4;fontFamily=Architects Daughter;fontSource=https://fonts.googleapis.com/css?family=Architects+Daughter;strokeColor=#000000;" vertex="1" parent="MBTDDo2H8t6Re1291r3L-19">
          <mxGeometry x="650" y="455" width="60" height="10" as="geometry" />
        </mxCell>
        <mxCell id="MBTDDo2H8t6Re1291r3L-75" value="" style="line;strokeWidth=2;direction=south;html=1;hachureGap=4;fontFamily=Architects Daughter;fontSource=https://fonts.googleapis.com/css?family=Architects+Daughter;strokeColor=#000000;" vertex="1" parent="MBTDDo2H8t6Re1291r3L-19">
          <mxGeometry x="470" y="570" width="10" height="30" as="geometry" />
        </mxCell>
        <mxCell id="MBTDDo2H8t6Re1291r3L-74" value="" style="line;strokeWidth=2;direction=south;html=1;hachureGap=4;fontFamily=Architects Daughter;fontSource=https://fonts.googleapis.com/css?family=Architects+Daughter;strokeColor=#000000;" vertex="1" parent="MBTDDo2H8t6Re1291r3L-19">
          <mxGeometry x="747" y="220" width="10" height="440" as="geometry" />
        </mxCell>
        <mxCell id="MBTDDo2H8t6Re1291r3L-93" value="" style="group" vertex="1" connectable="0" parent="MBTDDo2H8t6Re1291r3L-19">
          <mxGeometry x="50" y="50" width="240" height="240" as="geometry" />
        </mxCell>
        <mxCell id="MBTDDo2H8t6Re1291r3L-22" value="" style="ellipse;whiteSpace=wrap;html=1;aspect=fixed;rounded=0;labelBackgroundColor=none;strokeColor=#0F140C;strokeWidth=3;align=center;verticalAlign=middle;fontFamily=Helvetica;fontSize=12;fontColor=default;fillColor=#d5e8d4;container=0;" vertex="1" parent="MBTDDo2H8t6Re1291r3L-93">
          <mxGeometry width="240" height="240" as="geometry" />
        </mxCell>
        <mxCell id="MBTDDo2H8t6Re1291r3L-23" value="" style="endArrow=none;html=1;rounded=0;strokeColor=#0F140C;fontFamily=Helvetica;fontSize=12;fontColor=default;fillColor=#B2C9AB;strokeWidth=2;" edge="1" parent="MBTDDo2H8t6Re1291r3L-93">
          <mxGeometry width="50" height="50" relative="1" as="geometry">
            <mxPoint x="230.39999999999998" y="67.19999999999993" as="sourcePoint" />
            <mxPoint x="9.600000000000023" y="67.19999999999993" as="targetPoint" />
          </mxGeometry>
        </mxCell>
        <mxCell id="MBTDDo2H8t6Re1291r3L-24" value="" style="endArrow=none;html=1;rounded=0;strokeColor=#0F140C;fontFamily=Helvetica;fontSize=12;fontColor=default;fillColor=#B2C9AB;exitX=0.264;exitY=0.952;exitDx=0;exitDy=0;exitPerimeter=0;strokeWidth=2;" edge="1" parent="MBTDDo2H8t6Re1291r3L-93" source="MBTDDo2H8t6Re1291r3L-22">
          <mxGeometry width="50" height="50" relative="1" as="geometry">
            <mxPoint x="57.599999999999994" y="144" as="sourcePoint" />
            <mxPoint x="67.19999999999999" y="67.19999999999993" as="targetPoint" />
          </mxGeometry>
        </mxCell>
        <mxCell id="MBTDDo2H8t6Re1291r3L-25" value="" style="endArrow=none;html=1;rounded=0;strokeColor=#0F140C;fontFamily=Helvetica;fontSize=12;fontColor=default;fillColor=#B2C9AB;exitX=0.728;exitY=0.948;exitDx=0;exitDy=0;exitPerimeter=0;strokeWidth=2;" edge="1" parent="MBTDDo2H8t6Re1291r3L-93" source="MBTDDo2H8t6Re1291r3L-22">
          <mxGeometry width="50" height="50" relative="1" as="geometry">
            <mxPoint x="144.00000000000003" y="163.20000000000005" as="sourcePoint" />
            <mxPoint x="174.72000000000003" y="67.19999999999993" as="targetPoint" />
          </mxGeometry>
        </mxCell>
        <mxCell id="MBTDDo2H8t6Re1291r3L-26" value="&lt;font color=&quot;#000000&quot; size=&quot;1&quot; face=&quot;Comic Sans MS&quot;&gt;&lt;b style=&quot;font-size: 20px;&quot;&gt;x&lt;/b&gt;&lt;/font&gt;" style="text;strokeColor=none;align=center;fillColor=none;html=1;verticalAlign=middle;whiteSpace=wrap;rounded=0;fontFamily=Architects Daughter;fontSource=https://fonts.googleapis.com/css?family=Architects+Daughter;container=0;" vertex="1" parent="MBTDDo2H8t6Re1291r3L-93">
          <mxGeometry x="91.71717171717171" y="24.646464646464665" width="56.565656565656575" height="24.242424242424246" as="geometry" />
        </mxCell>
        <mxCell id="MBTDDo2H8t6Re1291r3L-28" value="&lt;font color=&quot;#000000&quot; size=&quot;1&quot; face=&quot;Comic Sans MS&quot;&gt;&lt;b style=&quot;font-size: 16px;&quot;&gt;x &amp;lt; 10&lt;/b&gt;&lt;/font&gt;" style="text;strokeColor=none;align=center;fillColor=none;html=1;verticalAlign=middle;whiteSpace=wrap;rounded=0;fontFamily=Architects Daughter;fontSource=https://fonts.googleapis.com/css?family=Architects+Daughter;container=0;" vertex="1" parent="MBTDDo2H8t6Re1291r3L-93">
          <mxGeometry x="91.71717171717171" y="113.53535353535358" width="56.565656565656575" height="24.242424242424246" as="geometry" />
        </mxCell>
        <mxCell id="MBTDDo2H8t6Re1291r3L-29" value="&lt;font color=&quot;#000000&quot; size=&quot;1&quot; face=&quot;Comic Sans MS&quot;&gt;&lt;b style=&quot;font-size: 16px;&quot;&gt;x++&lt;/b&gt;&lt;/font&gt;" style="text;strokeColor=none;align=center;fillColor=none;html=1;verticalAlign=middle;whiteSpace=wrap;rounded=0;fontFamily=Architects Daughter;fontSource=https://fonts.googleapis.com/css?family=Architects+Daughter;container=0;" vertex="1" parent="MBTDDo2H8t6Re1291r3L-93">
          <mxGeometry x="172.52525252525254" y="113.53535353535358" width="56.565656565656575" height="24.242424242424246" as="geometry" />
        </mxCell>
        <mxCell id="MBTDDo2H8t6Re1291r3L-61" value="&lt;font color=&quot;#000000&quot; size=&quot;1&quot; face=&quot;Comic Sans MS&quot;&gt;&lt;b style=&quot;font-size: 16px;&quot;&gt;x = 0&lt;/b&gt;&lt;/font&gt;" style="text;strokeColor=none;align=center;fillColor=none;html=1;verticalAlign=middle;whiteSpace=wrap;rounded=0;fontFamily=Architects Daughter;fontSource=https://fonts.googleapis.com/css?family=Architects+Daughter;container=0;" vertex="1" parent="MBTDDo2H8t6Re1291r3L-93">
          <mxGeometry x="10" y="110.53999999999996" width="50" height="30" as="geometry" />
        </mxCell>
        <mxCell id="MBTDDo2H8t6Re1291r3L-70" value="" style="line;strokeWidth=2;direction=south;html=1;hachureGap=4;fontFamily=Architects Daughter;fontSource=https://fonts.googleapis.com/css?family=Architects+Daughter;strokeColor=#000000;" vertex="1" parent="MBTDDo2H8t6Re1291r3L-19">
          <mxGeometry x="580" y="600" width="10" height="20" as="geometry" />
        </mxCell>
        <mxCell id="MBTDDo2H8t6Re1291r3L-85" value="" style="line;strokeWidth=2;html=1;perimeter=backbonePerimeter;points=[];outlineConnect=0;hachureGap=4;fontFamily=Architects Daughter;fontSource=https://fonts.googleapis.com/css?family=Architects+Daughter;strokeColor=#000000;" vertex="1" parent="MBTDDo2H8t6Re1291r3L-19">
          <mxGeometry x="350" y="616" width="230" height="10" as="geometry" />
        </mxCell>
        <mxCell id="MBTDDo2H8t6Re1291r3L-94" value="" style="line;strokeWidth=2;direction=south;html=1;hachureGap=4;fontFamily=Architects Daughter;fontSource=https://fonts.googleapis.com/css?family=Architects+Daughter;strokeColor=#000000;" vertex="1" parent="MBTDDo2H8t6Re1291r3L-19">
          <mxGeometry x="460" y="620" width="10" height="40" as="geometry" />
        </mxCell>
        <mxCell id="MBTDDo2H8t6Re1291r3L-105" value="&lt;font color=&quot;#000000&quot; size=&quot;1&quot; face=&quot;Comic Sans MS&quot;&gt;&lt;b style=&quot;font-size: 13px;&quot;&gt;V&lt;/b&gt;&lt;/font&gt;" style="text;strokeColor=none;align=center;fillColor=none;html=1;verticalAlign=middle;whiteSpace=wrap;rounded=0;fontFamily=Architects Daughter;fontSource=https://fonts.googleapis.com/css?family=Architects+Daughter;" vertex="1" parent="MBTDDo2H8t6Re1291r3L-19">
          <mxGeometry x="450" y="195" width="30" height="30" as="geometry" />
        </mxCell>
        <mxCell id="MBTDDo2H8t6Re1291r3L-106" value="&lt;font color=&quot;#000000&quot; size=&quot;1&quot; face=&quot;Comic Sans MS&quot;&gt;&lt;b style=&quot;font-size: 13px;&quot;&gt;F&lt;/b&gt;&lt;/font&gt;" style="text;strokeColor=none;align=center;fillColor=none;html=1;verticalAlign=middle;whiteSpace=wrap;rounded=0;fontFamily=Architects Daughter;fontSource=https://fonts.googleapis.com/css?family=Architects+Daughter;" vertex="1" parent="MBTDDo2H8t6Re1291r3L-19">
          <mxGeometry x="734" y="195" width="30" height="30" as="geometry" />
        </mxCell>
        <mxCell id="MBTDDo2H8t6Re1291r3L-103" value="&lt;font color=&quot;#000000&quot; size=&quot;1&quot; face=&quot;Comic Sans MS&quot;&gt;&lt;b style=&quot;font-size: 13px;&quot;&gt;V&lt;/b&gt;&lt;/font&gt;" style="text;strokeColor=none;align=center;fillColor=none;html=1;verticalAlign=middle;whiteSpace=wrap;rounded=0;fontFamily=Architects Daughter;fontSource=https://fonts.googleapis.com/css?family=Architects+Daughter;" vertex="1" parent="MBTDDo2H8t6Re1291r3L-19">
          <mxGeometry x="340" y="315" width="30" height="30" as="geometry" />
        </mxCell>
        <mxCell id="MBTDDo2H8t6Re1291r3L-102" value="&lt;font color=&quot;#000000&quot; size=&quot;1&quot; face=&quot;Comic Sans MS&quot;&gt;&lt;b style=&quot;font-size: 13px;&quot;&gt;V&lt;/b&gt;&lt;/font&gt;" style="text;strokeColor=none;align=center;fillColor=none;html=1;verticalAlign=middle;whiteSpace=wrap;rounded=0;fontFamily=Architects Daughter;fontSource=https%3A%2F%2Ffonts.googleapis.com%2Fcss%3Ffamily%3DArchitects%2BDaughter;" vertex="1" parent="MBTDDo2H8t6Re1291r3L-19">
          <mxGeometry x="460" y="435" width="30" height="30" as="geometry" />
        </mxCell>
        <mxCell id="MBTDDo2H8t6Re1291r3L-107" value="&lt;font color=&quot;#000000&quot; size=&quot;1&quot; face=&quot;Comic Sans MS&quot;&gt;&lt;b style=&quot;font-size: 13px;&quot;&gt;F&lt;/b&gt;&lt;/font&gt;" style="text;strokeColor=none;align=center;fillColor=none;html=1;verticalAlign=middle;whiteSpace=wrap;rounded=0;fontFamily=Architects Daughter;fontSource=https://fonts.googleapis.com/css?family=Architects+Daughter;" vertex="1" parent="MBTDDo2H8t6Re1291r3L-19">
          <mxGeometry x="686" y="437" width="30" height="30" as="geometry" />
        </mxCell>
        <mxCell id="MBTDDo2H8t6Re1291r3L-101" value="" style="group;aspect=fixed;" vertex="1" connectable="0" parent="MBTDDo2H8t6Re1291r3L-63">
          <mxGeometry x="390" width="250" height="1060" as="geometry" />
        </mxCell>
        <mxCell id="MBTDDo2H8t6Re1291r3L-6" value="" style="group;aspect=fixed;" vertex="1" connectable="0" parent="MBTDDo2H8t6Re1291r3L-101">
          <mxGeometry x="80" width="50" height="50" as="geometry" />
        </mxCell>
        <mxCell id="MBTDDo2H8t6Re1291r3L-2" value="" style="strokeWidth=2;html=1;shape=mxgraph.flowchart.start_2;whiteSpace=wrap;rounded=0;labelBackgroundColor=none;strokeColor=#000000;align=center;verticalAlign=middle;fontFamily=Helvetica;fontSize=12;fontColor=default;fillColor=#d5e8d4;" vertex="1" parent="MBTDDo2H8t6Re1291r3L-6">
          <mxGeometry width="50" height="50" as="geometry" />
        </mxCell>
        <mxCell id="MBTDDo2H8t6Re1291r3L-4" value="&lt;font color=&quot;#000000&quot; size=&quot;1&quot; face=&quot;Comic Sans MS&quot;&gt;&lt;b style=&quot;font-size: 20px;&quot;&gt;I&lt;/b&gt;&lt;/font&gt;" style="text;strokeColor=none;align=center;fillColor=none;html=1;verticalAlign=middle;whiteSpace=wrap;rounded=0;fontFamily=Architects Daughter;fontSource=https%3A%2F%2Ffonts.googleapis.com%2Fcss%3Ffamily%3DArchitects%2BDaughter;" vertex="1" parent="MBTDDo2H8t6Re1291r3L-6">
          <mxGeometry x="10" y="5" width="30" height="40" as="geometry" />
        </mxCell>
        <mxCell id="MBTDDo2H8t6Re1291r3L-18" value="" style="group;aspect=fixed;" vertex="1" connectable="0" parent="MBTDDo2H8t6Re1291r3L-101">
          <mxGeometry y="90" width="210" height="40" as="geometry" />
        </mxCell>
        <mxCell id="MBTDDo2H8t6Re1291r3L-15" value="" style="rounded=0;whiteSpace=wrap;html=1;labelBackgroundColor=none;strokeColor=#0f100e;strokeWidth=2;align=center;verticalAlign=middle;fontFamily=Helvetica;fontSize=12;fontColor=default;fillColor=#d5e8d4;container=0;" vertex="1" parent="MBTDDo2H8t6Re1291r3L-18">
          <mxGeometry width="210" height="40" as="geometry" />
        </mxCell>
        <mxCell id="MBTDDo2H8t6Re1291r3L-16" value="&lt;font color=&quot;#000000&quot; size=&quot;1&quot; face=&quot;Comic Sans MS&quot;&gt;&lt;b style=&quot;font-size: 16px;&quot;&gt;bool bandera_par = false&lt;/b&gt;&lt;/font&gt;" style="text;strokeColor=none;align=center;fillColor=none;html=1;verticalAlign=middle;whiteSpace=wrap;rounded=0;fontFamily=Architects Daughter;fontSource=https://fonts.googleapis.com/css?family=Architects+Daughter;container=0;" vertex="1" parent="MBTDDo2H8t6Re1291r3L-18">
          <mxGeometry x="5" y="5" width="200" height="30" as="geometry" />
        </mxCell>
        <mxCell id="MBTDDo2H8t6Re1291r3L-30" value="" style="group;aspect=fixed;" vertex="1" connectable="0" parent="MBTDDo2H8t6Re1291r3L-101">
          <mxGeometry x="130" y="250" width="120" height="40" as="geometry" />
        </mxCell>
        <mxCell id="MBTDDo2H8t6Re1291r3L-31" value="" style="shape=trapezoid;perimeter=trapezoidPerimeter;whiteSpace=wrap;html=1;fixedSize=1;rounded=0;labelBackgroundColor=none;strokeColor=#121211;strokeWidth=2;align=center;verticalAlign=middle;fontFamily=Helvetica;fontSize=12;fontColor=default;fillColor=#d5e8d4;direction=west;container=0;" vertex="1" parent="MBTDDo2H8t6Re1291r3L-30">
          <mxGeometry width="120" height="40" as="geometry">
            <mxRectangle x="-1020" y="-650" width="50" height="40" as="alternateBounds" />
          </mxGeometry>
        </mxCell>
        <mxCell id="MBTDDo2H8t6Re1291r3L-32" value="&lt;font color=&quot;#000000&quot; size=&quot;1&quot; face=&quot;Comic Sans MS&quot;&gt;&lt;b style=&quot;font-size: 16px;&quot;&gt;num&lt;/b&gt;&lt;/font&gt;" style="text;strokeColor=none;align=center;fillColor=none;html=1;verticalAlign=middle;whiteSpace=wrap;rounded=0;fontFamily=Architects Daughter;fontSource=https://fonts.googleapis.com/css?family=Architects+Daughter;container=0;" vertex="1" parent="MBTDDo2H8t6Re1291r3L-30">
          <mxGeometry x="25" y="5" width="70" height="30" as="geometry" />
        </mxCell>
        <mxCell id="MBTDDo2H8t6Re1291r3L-67" value="" style="line;strokeWidth=2;direction=south;html=1;hachureGap=4;fontFamily=Architects Daughter;fontSource=https://fonts.googleapis.com/css?family=Architects+Daughter;strokeColor=#000000;" vertex="1" parent="MBTDDo2H8t6Re1291r3L-101">
          <mxGeometry x="100" y="50" width="10" height="40" as="geometry" />
        </mxCell>
        <mxCell id="MBTDDo2H8t6Re1291r3L-66" value="" style="line;strokeWidth=2;direction=south;html=1;hachureGap=4;fontFamily=Architects Daughter;fontSource=https://fonts.googleapis.com/css?family=Architects+Daughter;strokeColor=#000000;" vertex="1" parent="MBTDDo2H8t6Re1291r3L-101">
          <mxGeometry x="100" y="130" width="10" height="50" as="geometry" />
        </mxCell>
        <mxCell id="MBTDDo2H8t6Re1291r3L-95" value="" style="line;strokeWidth=2;direction=south;html=1;hachureGap=4;fontFamily=Architects Daughter;fontSource=https://fonts.googleapis.com/css?family=Architects+Daughter;strokeColor=#000000;" vertex="1" parent="MBTDDo2H8t6Re1291r3L-101">
          <mxGeometry x="90" y="880" width="10" height="50" as="geometry" />
        </mxCell>
        <mxCell id="MBTDDo2H8t6Re1291r3L-59" value="" style="group;aspect=fixed;" vertex="1" connectable="0" parent="MBTDDo2H8t6Re1291r3L-101">
          <mxGeometry x="20" y="930" width="150" height="40" as="geometry" />
        </mxCell>
        <mxCell id="MBTDDo2H8t6Re1291r3L-57" value="" style="shape=trapezoid;perimeter=trapezoidPerimeter;whiteSpace=wrap;html=1;fixedSize=1;rounded=0;labelBackgroundColor=none;strokeColor=#0F140C;strokeWidth=2;align=center;verticalAlign=middle;fontFamily=Helvetica;fontSize=12;fontColor=default;fillColor=#d5e8d4;" vertex="1" parent="MBTDDo2H8t6Re1291r3L-59">
          <mxGeometry width="150" height="40" as="geometry" />
        </mxCell>
        <mxCell id="MBTDDo2H8t6Re1291r3L-58" value="&lt;b&gt;&lt;font color=&quot;#000000&quot; style=&quot;font-size: 15px;&quot; face=&quot;Comic Sans MS&quot;&gt;maximo_par&lt;/font&gt;&lt;/b&gt;" style="text;strokeColor=none;align=center;fillColor=none;html=1;verticalAlign=middle;whiteSpace=wrap;rounded=0;fontFamily=Architects Daughter;fontSource=https%3A%2F%2Ffonts.googleapis.com%2Fcss%3Ffamily%3DArchitects%2BDaughter;" vertex="1" parent="MBTDDo2H8t6Re1291r3L-59">
          <mxGeometry x="20" y="10" width="110" height="20" as="geometry" />
        </mxCell>
        <mxCell id="MBTDDo2H8t6Re1291r3L-98" value="" style="group;aspect=fixed;" vertex="1" connectable="0" parent="MBTDDo2H8t6Re1291r3L-101">
          <mxGeometry x="70" y="1010" width="50" height="50" as="geometry" />
        </mxCell>
        <mxCell id="MBTDDo2H8t6Re1291r3L-99" value="" style="strokeWidth=2;html=1;shape=mxgraph.flowchart.start_2;whiteSpace=wrap;rounded=0;labelBackgroundColor=none;strokeColor=#000000;align=center;verticalAlign=middle;fontFamily=Helvetica;fontSize=12;fontColor=default;fillColor=#d5e8d4;aspect=fixed;container=0;" vertex="1" parent="MBTDDo2H8t6Re1291r3L-98">
          <mxGeometry width="50" height="50" as="geometry" />
        </mxCell>
        <mxCell id="MBTDDo2H8t6Re1291r3L-100" value="&lt;font color=&quot;#000000&quot; size=&quot;1&quot; face=&quot;Comic Sans MS&quot;&gt;&lt;b style=&quot;font-size: 20px;&quot;&gt;F&lt;/b&gt;&lt;/font&gt;" style="text;strokeColor=none;align=center;fillColor=none;html=1;verticalAlign=middle;whiteSpace=wrap;rounded=0;fontFamily=Architects Daughter;fontSource=https://fonts.googleapis.com/css?family=Architects+Daughter;aspect=fixed;container=0;" vertex="1" parent="MBTDDo2H8t6Re1291r3L-98">
          <mxGeometry x="10" y="5" width="30" height="40" as="geometry" />
        </mxCell>
        <mxCell id="MBTDDo2H8t6Re1291r3L-96" value="" style="line;strokeWidth=2;direction=south;html=1;hachureGap=4;fontFamily=Architects Daughter;fontSource=https://fonts.googleapis.com/css?family=Architects+Daughter;strokeColor=#000000;" vertex="1" parent="MBTDDo2H8t6Re1291r3L-101">
          <mxGeometry x="90" y="969" width="10" height="41" as="geometry" />
        </mxCell>
        <mxCell id="MBTDDo2H8t6Re1291r3L-104" value="&lt;font color=&quot;#000000&quot; size=&quot;1&quot; face=&quot;Comic Sans MS&quot;&gt;&lt;b style=&quot;font-size: 13px;&quot;&gt;F&lt;/b&gt;&lt;/font&gt;" style="text;strokeColor=none;align=center;fillColor=none;html=1;verticalAlign=middle;whiteSpace=wrap;rounded=0;fontFamily=Architects Daughter;fontSource=https://fonts.googleapis.com/css?family=Architects+Daughter;" vertex="1" parent="MBTDDo2H8t6Re1291r3L-101">
          <mxGeometry x="179" y="496" width="30" height="30" as="geometry" />
        </mxCell>
        <mxCell id="MBTDDo2H8t6Re1291r3L-69" value="" style="line;strokeWidth=2;direction=south;html=1;hachureGap=4;fontFamily=Architects Daughter;fontSource=https://fonts.googleapis.com/css?family=Architects+Daughter;strokeColor=#000000;" vertex="1" parent="1">
          <mxGeometry x="227" y="720" width="10" height="70" as="geometry" />
        </mxCell>
        <mxCell id="MBTDDo2H8t6Re1291r3L-71" value="" style="line;strokeWidth=2;direction=south;html=1;hachureGap=4;fontFamily=Architects Daughter;fontSource=https://fonts.googleapis.com/css?family=Architects+Daughter;strokeColor=#000000;" vertex="1" parent="1">
          <mxGeometry x="582" y="840" width="10" height="140" as="geometry" />
        </mxCell>
        <mxCell id="MBTDDo2H8t6Re1291r3L-72" value="" style="line;strokeWidth=2;direction=south;html=1;hachureGap=4;fontFamily=Architects Daughter;fontSource=https://fonts.googleapis.com/css?family=Architects+Daughter;strokeColor=#000000;" vertex="1" parent="1">
          <mxGeometry x="347" y="840" width="10" height="60" as="geometry" />
        </mxCell>
        <mxCell id="MBTDDo2H8t6Re1291r3L-82" value="" style="line;strokeWidth=2;html=1;perimeter=backbonePerimeter;points=[];outlineConnect=0;hachureGap=4;fontFamily=Architects Daughter;fontSource=https://fonts.googleapis.com/css?family=Architects+Daughter;strokeColor=#000000;" vertex="1" parent="1">
          <mxGeometry x="350" y="972" width="237" height="10" as="geometry" />
        </mxCell>
        <mxCell id="MBTDDo2H8t6Re1291r3L-91" value="" style="line;strokeWidth=2;html=1;perimeter=backbonePerimeter;points=[];outlineConnect=0;hachureGap=4;fontFamily=Architects Daughter;fontSource=https://fonts.googleapis.com/css?family=Architects+Daughter;strokeColor=#000000;" vertex="1" parent="1">
          <mxGeometry x="343" y="1032" width="287" height="10" as="geometry" />
        </mxCell>
      </root>
    </mxGraphModel>
  </diagram>
</mxfile>
